<?xml version="1.0" encoding="UTF-8" standalone="no"?>
<!-- Created with Inkscape (http://www.inkscape.org/) -->

<svg
   width="210mm"
   height="297mm"
   viewBox="0 0 210 297"
   version="1.1"
   id="svg1"
   xml:space="preserve"
   inkscape:version="1.4 (86a8ad7, 2024-10-11)"
   sodipodi:docname="iconos veterinaria.svg"
   xmlns:inkscape="http://www.inkscape.org/namespaces/inkscape"
   xmlns:sodipodi="http://sodipodi.sourceforge.net/DTD/sodipodi-0.dtd"
   xmlns:xlink="http://www.w3.org/1999/xlink"
   xmlns="http://www.w3.org/2000/svg"
   xmlns:svg="http://www.w3.org/2000/svg"><sodipodi:namedview
     id="namedview1"
     pagecolor="#ffffff"
     bordercolor="#000000"
     borderopacity="0.25"
     inkscape:showpageshadow="2"
     inkscape:pageopacity="0.0"
     inkscape:pagecheckerboard="0"
     inkscape:deskcolor="#d1d1d1"
     inkscape:document-units="mm"
     inkscape:zoom="0.35355339"
     inkscape:cx="941.86623"
     inkscape:cy="496.38896"
     inkscape:window-width="1360"
     inkscape:window-height="697"
     inkscape:window-x="-8"
     inkscape:window-y="-8"
     inkscape:window-maximized="1"
     inkscape:current-layer="layer1" /><defs
     id="defs1" /><g
     inkscape:label="Capa 1"
     inkscape:groupmode="layer"
     id="layer1"><path
       style="opacity:1;fill:#000000;fill-opacity:1;stroke:#000000;stroke-width:1.8;stroke-dasharray:none"
       d="m 21.124495,109.37267 c -1.203956,2.14578 -1.938356,4.10149 2.088714,4.12995 l 59.480882,-0.0949 c 4.964744,-0.78121 7.350337,-3.71172 8.022561,-8.07003 V 74.481647 C 90.62889,70.785034 89.274838,67.932616 86.501921,66.026106 89.6013,59.024751 89.646273,53.411763 84.877748,49.986728 82.953676,48.994335 83.922779,46.232868 83.596037,44.67 L 82.64662,24.732274 C 83.408366,4.6853925 47.944193,-5.872802 42.581287,24.969628 l -0.996886,20.602316 c -0.451883,2.162232 -0.386692,5.276761 -2.919456,6.33735 -1.068442,2.24594 -2.471317,3.779394 -0.73434,12.002098 -2.517053,1.930799 -5.304284,3.411303 -6.279464,7.911891 l -5.30486,0.04747 c -2.3561,1.449474 -4.804234,2.806914 -4.723343,6.693379 0.487395,5.076436 2.684424,8.71318 6.573263,10.925241 l 5.404273,0.520287 -1.997231,4.783286 c -2.517151,-1.001455 -4.839533,-0.542145 -6.9987,1.141275 -2.272811,3.621041 -6.999329,5.349219 -3.480048,13.438449 z"
       id="path1"
       sodipodi:nodetypes="ccccccccccccccccccccc" /><path
       style="opacity:1;fill:#77440e;fill-opacity:1;stroke:#000000;stroke-width:1.8;stroke-dasharray:none;stroke-opacity:0"
       d="m 44.912522,27.457729 c 0.135041,-2.825116 -0.06897,-3.770485 0.973041,-6.595601 8.121974,-20.95667008 31.517588,-12.9400472 33.662249,1.266613 0.919646,2.517557 0.637643,4.346017 0.665579,8.829784 l -3.61371,-0.849006 c -2.302317,0.396649 -4.671684,-0.885422 -6.814082,-1.208407 -5.989293,-1.876718 -10.415959,-7.007914 -10.395908,-8.422908 -2.567309,-2.289015 -2.160701,-0.756645 -3.29939,-0.50589 -0.827873,1.569826 -1.186878,3.772695 -3.054587,6.545546 -2.821271,3.248206 -7.343995,4.687419 -8.092011,4.392203 z"
       id="path6"
       sodipodi:nodetypes="ccccccccccc" /><path
       style="opacity:1;fill:#d39d7b;fill-opacity:0.97647059;stroke:#000000;stroke-width:1.8;stroke-dasharray:none;stroke-opacity:0"
       d="m 48.588098,41.035543 2e-6,-7.401501 c -0.414454,-0.0423 -0.771058,-0.04122 -1.007008,0.05035 -1.199255,0.650425 -1.954039,0.841653 -2.500734,2.601434 -0.124349,0.410357 -0.258385,0.582046 -0.08391,1.84618 0.161356,0.562687 0.399629,1.145659 0.822388,1.577645 0.420584,0.491118 0.869131,0.965462 1.510511,1.191624 z"
       id="path7"
       sodipodi:nodetypes="cccccccc" /><use
       x="0"
       y="0"
       xlink:href="#path7"
       id="use7"
       transform="rotate(-179.25665,62.610738,37.280825)" /><ellipse
       style="opacity:1;fill:#000003;fill-opacity:1;stroke:#000000;stroke-width:1.8;stroke-dasharray:none;stroke-opacity:0"
       id="path8"
       cx="69.399582"
       cy="35.748756"
       rx="2.1650655"
       ry="2.181849" /><use
       x="0"
       y="0"
       xlink:href="#path8"
       id="use9"
       transform="translate(-13.359629,-0.30210212)" /><path
       style="opacity:1;fill:#ce9978;fill-opacity:1;stroke:#000000;stroke-width:1.8;stroke-dasharray:none;stroke-opacity:0"
       d="m 52.297242,40.884494 -0.03357,-8.727398 2.685354,-2.248982 2.28255,-3.423825 0.772038,-1.678345 2.148282,2.416819 2.752487,2.282549 3.826626,2.014014 2.618219,0.973439 2.517518,0.671341 1.342676,0.167833 0.134268,7.619687 -11.211345,-0.134268 0.939871,-1.779045 1.409811,-2.886755 0.100701,-1.342675 -1.107708,-1.007007 -1.275543,-0.134268 -0.671337,0.335669 -3.457393,6.847649 z"
       id="path9" /><ellipse
       style="opacity:1;fill:#000003;fill-opacity:1;stroke:#000000;stroke-width:1.8;stroke-dasharray:none;stroke-opacity:0"
       id="ellipse9"
       cx="56.039955"
       cy="35.480221"
       rx="2.1650655"
       ry="2.181849" /><use
       x="0"
       y="0"
       xlink:href="#path8"
       id="use10"
       transform="translate(-0.06713333,-0.16783449)" /><path
       style="opacity:0.677316;fill:#85bc94;fill-opacity:1;stroke:#26dd9a;stroke-width:1.7;stroke-dasharray:none;stroke-opacity:0"
       d="m 52.075442,44.646265 20.934611,-0.07121 c 0.538781,0.753461 -0.01386,2.393701 -0.450972,3.940075 -2.824129,8.207521 -15.546723,10.441234 -19.771579,0 -0.478046,-1.202097 -0.726279,-2.487762 -0.71206,-3.868865 z"
       id="path10"
       sodipodi:nodetypes="ccccc" /><path
       style="opacity:1;fill:#77440e;fill-opacity:1;stroke:#26dd9a;stroke-width:1.7;stroke-dasharray:none;stroke-opacity:0"
       d="m 45.046791,43.704113 3.55809,1.007006 c -0.242025,5.659269 3.149548,10.037593 6.898,12.436541 0.163985,1.399493 0.137983,2.703993 0.05035,3.977677 -0.6512,0.420504 -1.589093,0.267622 -2.409698,0.349316 -0.835009,0.247211 -1.692894,0.420075 -2.77704,-0.142411 -2.74562,-0.925636 -5.910567,-0.44081 -9.351743,0.97315 -0.455323,-0.706132 -0.834171,-1.794638 -1.163034,-3.133071 -0.473835,-2.312074 -0.0434,-3.418458 0.411789,-4.491829 0.406194,-1.203729 2.343896,-3.326364 3.591661,-5.035036 0.791406,-1.765431 1.093694,-3.797653 1.191625,-5.941343 z"
       id="path11"
       sodipodi:nodetypes="ccccccccccc" /><path
       style="opacity:1;fill:#77440e;fill-opacity:1;stroke:#26dd9a;stroke-width:1.7;stroke-dasharray:none;stroke-opacity:0"
       d="m 76.666817,44.677554 3.423825,-0.956658 c 0.143526,1.656016 0.245455,3.933122 0.819957,4.829762 0.520121,1.281387 1.379223,2.369071 2.201063,3.478048 3.032855,3.412632 3.339907,7.331082 0.234968,11.882686 L 69.651334,61.158905 v -4.12873 c 5.63417,-3.526009 6.16732,-7.967585 7.015483,-12.352621 z"
       id="path12"
       sodipodi:nodetypes="cccccccc" /><path
       style="opacity:1;fill:#d39d7b;fill-opacity:0.976471;stroke:#26dd9a;stroke-width:1.7;stroke-dasharray:none;stroke-opacity:0"
       d="m 59.101116,58.650144 c 2.536623,0.954196 4.74578,0.516664 6.930734,-0.02373 l 0.166148,3.512836 -3.584046,4.699609 -3.441631,-4.747078 z"
       id="path13"
       sodipodi:nodetypes="cccccc" /><path
       style="opacity:1;fill:#d39d7b;fill-opacity:0.976471;stroke:#26dd9a;stroke-width:1.7;stroke-dasharray:none;stroke-opacity:0"
       d="m 53.136416,109.89805 h 29.102507 c 3.185202,-0.0449 4.536733,-2.22481 4.984686,-4.78328 l -0.03357,-18.797467 -4.598667,-0.03357 c 0.262354,2.069676 1.084897,3.481738 0,7.132969 -0.164931,0.737986 -0.377245,1.526513 -2.400033,4.246213 l -0.05035,3.591665 c -0.246638,0.76299 -0.665749,1.36677 -1.728695,1.37624 l -14.564103,0.0247 -2.966924,-2.800776 c -1.711429,-1.34444 -2.479498,-0.716399 -3.228012,-0.04747 l -0.450974,1.495326 c -0.301655,1.016 -1.183719,1.21058 -2.112448,1.31732 l -1.922567,0.0119 c -3.772562,1.0516 -4.11614,6.18504 -0.03085,7.26626 z"
       id="path14"
       sodipodi:nodetypes="ccccccccccccccccc" /><path
       style="opacity:1;fill:#ce9978;fill-opacity:1;stroke:#26dd9a;stroke-width:1.7;stroke-dasharray:none;stroke-opacity:0"
       d="m 25.410149,100.13008 c -0.691508,1.17698 -1.517567,1.88303 -1.980448,3.8602 -0.67712,1.99084 -0.08676,3.22805 1.577645,3.82663 l 7.149752,2.08114 c 3.85557,0.42064 5.7165,-4.5691 2.316115,-6.64624 l -2.483951,-0.93988 c -0.849953,-0.35845 -1.335755,-1.08106 -1.174842,-2.450381 -0.240401,-1.788261 -1.038174,-2.78269 -3.35669,-1.611212 -0.797652,0.492269 -1.618227,0.957793 -2.047581,1.879743 z"
       id="path15"
       sodipodi:nodetypes="ccccccccc" /><path
       style="opacity:0.648562;fill:#997961;fill-opacity:1;stroke:#26dd9a;stroke-width:1.7;stroke-dasharray:none;stroke-opacity:0"
       d="m 52.170382,75.478533 4.414782,-0.02373 2.492216,2.610893 v 4.984432 c -0.800214,3.739339 -5.919991,4.131331 -6.978202,0 z"
       id="path16"
       sodipodi:nodetypes="cccccc" /><path
       style="opacity:1;fill:#bd906f;fill-opacity:1;stroke:#26dd9a;stroke-width:1.7;stroke-dasharray:none;stroke-opacity:0"
       d="m 38.926037,109.99604 8.754285,-0.0226 c -2.777574,-8.51369 4.522783,-11.152624 6.598439,-10.847074 0.987827,-2.47454 2.706362,-3.51473 4.901356,-3.61965 l -0.0712,-6.66964 c -5.23553,2.12867 -8.681016,0.23555 -10.470462,-5.37829 v -9.86867 c -0.03654,-1.10079 0.779977,-1.56969 1.946881,-1.77904 l 7.518987,0.1007 c -3.541105,-9.35067 -16.548659,-10.35163 -22.724802,0 l -1.014752,2.62473 -1.637741,1.04435 -1.708949,-0.0949 c -0.0548,2.52778 -0.664786,4.82555 -5.09124,5.54222 0.352199,2.41332 1.21147,4.53366 4.38408,5.31741 l 8.760963,0.13427 2.853187,-3.02103 c 2.707391,-1.175405 3.154159,0.0982 2.651784,2.40004 l -4.111946,4.16229 -3.004237,0.0336 -3.356692,7.83788 0.268536,1.37624 1.695127,0.65455 2.2322,-5.20287 c 1.220418,-1.98261 3.878919,-0.52921 3.138506,1.51051 l -2.668569,6.344154 c 1.637364,2.92938 1.187443,5.33653 0.156259,7.42087 z"
       id="path17"
       sodipodi:nodetypes="cccccccccccccccccccccccccccc" /><path
       style="opacity:1;fill:#85bc94;fill-opacity:1;stroke:#26dd9a;stroke-width:1.7;stroke-dasharray:none;stroke-opacity:0"
       d="m 61.664537,71.633402 c 1.333843,0.547849 1.756901,0.0548 2.231128,-0.379767 l 4.794546,-6.598439 2.705836,0.545915 v 10.467306 c -13.04993,6.768796 0.892128,19.979791 7.595325,11.10816 0.946571,2.536238 1.353841,6.058242 -2.278597,9.850186 l -0.04747,2.468481 H 65.129904 L 62.708895,96.603028 62.661425,75.336121 C 62.47333,74.462383 62.104694,73.137293 61.664537,71.633402 Z"
       id="path18"
       sodipodi:nodetypes="cccccccccccc" /><path
       style="opacity:1;fill:#85bc94;fill-opacity:1;stroke:#26dd9a;stroke-width:1.7;stroke-dasharray:none;stroke-opacity:0"
       d="m 75.051297,65.747023 -0.237355,9.826451 c 4.176338,1.832453 4.691655,4.043632 5.293482,6.245862 l 0.688123,0.939874 6.327362,-0.06713 0.08391,-7.753956 c -0.8417,-7.477644 -6.34313,-8.548158 -12.155522,-9.191101 z"
       id="path19"
       sodipodi:nodetypes="ccccccc" /><ellipse
       style="opacity:1;fill:#000000;fill-opacity:1;stroke:#000000;stroke-width:1.8;stroke-dasharray:none"
       id="ellipse19"
       cx="-41.19767"
       cy="75.580681"
       rx="1.1550558"
       ry="1.1749017"
       transform="scale(-1,1)" /><path
       style="opacity:1;fill:#95755f;fill-opacity:1;stroke:#26dd9a;stroke-width:1.7;stroke-dasharray:none;stroke-opacity:0"
       d="m 24.889862,77.321372 c -0.04609,-0.360677 0.02471,-0.735967 0.335669,-1.141275 0.173626,-0.452917 0.643659,-0.550146 1.023791,-0.755256 0.765065,-0.07261 1.686476,-0.285923 1.158058,0.805606 0.03743,0.577641 -0.459336,0.850025 -1.040574,1.07414 z"
       id="path20"
       sodipodi:nodetypes="cccccc" /><ellipse
       style="opacity:1;fill:none;fill-opacity:1;stroke:#484848;stroke-width:1.8;stroke-dasharray:none;stroke-opacity:1"
       id="ellipse20"
       cx="73.11483"
       cy="82.694092"
       rx="2.7607505"
       ry="2.7787273" /><path
       style="opacity:1;fill:#000000;fill-opacity:1;stroke:#000000;stroke-width:1.4;stroke-dasharray:none;stroke-opacity:1"
       d="m 17.849012,54.448979 c 3.43726,-2.137813 6.91295,-3.148349 10.538512,0.237355 1.233083,2.717387 1.327707,5.384175 -0.284824,7.97509 l -9.11439,6.550966 c -0.750326,0.08235 -1.303356,0.65795 -2.397274,-0.118676 l -8.6524624,-6.44108 c -2.7694266,-5.402517 -0.6957618,-6.45446 0,-8.74418 4.0351224,-2.665105 6.9907124,-1.132026 9.9104384,0.540525 z"
       id="path21"
       sodipodi:nodetypes="cccccccc" /><path
       style="opacity:1;fill:#db4d41;fill-opacity:1;stroke:#000000;stroke-width:1.39999;stroke-dasharray:none;stroke-opacity:1"
       d="m 18.042158,56.074677 c 2.469965,-1.387271 4.967544,-2.04303 7.572818,0.154017 0.886076,1.763368 0.954072,3.493902 -0.204669,5.1752 l -6.549466,4.251057 c -0.539173,0.05344 -0.936573,0.42696 -1.722646,-0.07701 l -6.217533,-4.179739 c -1.9900682,-3.505807 -0.499962,-4.188434 0,-5.674281 2.899581,-1.729442 5.023424,-0.734595 7.121496,0.35076 z"
       id="path22"
       sodipodi:nodetypes="cccccccc" /><path
       style="opacity:1;fill:#464646;fill-opacity:1;stroke:#000000;stroke-width:0.7;stroke-dasharray:none"
       d="m 161.20846,54.327973 c -1.42899,-2.344334 3.32655,-4.150241 4.3781,-1.493798 l 2.61274,4.431041 c 6.86236,7.575333 11.44563,2.499355 15.74706,0 l 2.61274,-2.618342 c 1.73419,-2.102292 2.79472,-1.551218 3.60134,0 0.77309,1.300876 -0.16628,2.895906 -2.18904,5.589153 -13.18055,10.985905 -21.55445,3.675262 -26.76294,-5.908054 z"
       id="path2"
       sodipodi:nodetypes="cccccccc" /><path
       style="opacity:1;fill:#919191;fill-opacity:1;stroke:#000000;stroke-width:0.7;stroke-dasharray:none"
       d="m 161.23722,52.001491 -1.26593,-12.413317 c -0.31221,-3.281621 0.52541,-6.066332 1.20652,-8.918687 0.84049,-2.150915 2.1887,-4.066603 4.76182,-5.193634 l 4.81945,-0.453175 c -0.36887,0.751686 -0.70023,1.337745 -0.19419,2.089639 -1.72966,0.117672 -3.36789,0.417857 -4.63093,1.467175 -3.22606,1.675543 -2.42183,3.796646 -3.04967,5.759429 -1.56149,5.615367 -0.18104,11.564079 1.41128,16.914873 -1.01945,-0.119138 -2.03889,-0.07311 -3.05835,0.747697 z"
       id="path3"
       sodipodi:nodetypes="cccccccccc" /><path
       style="opacity:1;fill:#919191;fill-opacity:1;stroke:#000000;stroke-width:0.7;stroke-dasharray:none"
       d="m 190.56387,55.017106 c 1.94965,-3.807532 3.64486,-7.615063 4.66693,-11.422596 0.79756,-2.999338 0.63355,-5.807662 1.03852,-8.73764 -0.12975,-2.29124 -1.16726,-4.786287 -3.27145,-6.58984 -1.45988,-0.896712 -3.16973,-1.1597 -4.81658,-1.582371 0.11708,0.821974 0.32074,1.340932 -0.39759,1.915732 1.66034,0.253448 3.63899,0.825544 4.49848,2.322895 1.4406,4.102601 0.29026,5.748921 0.68582,7.215629 -0.26555,5.80281 -1.89631,10.356267 -5.09025,15.01478 1.36117,-0.325463 2.41546,0.155556 2.68612,1.863411 z"
       id="path4"
       sodipodi:nodetypes="cccccccccc" /><ellipse
       style="opacity:1;fill:#212121;fill-opacity:1;stroke:#000000;stroke-width:0.7;stroke-dasharray:none"
       id="path5"
       cx="173.01875"
       cy="26.365417"
       rx="2.4538579"
       ry="1.8966199" /><ellipse
       style="opacity:1;fill:#212121;fill-opacity:1;stroke:#000000;stroke-width:0.7;stroke-dasharray:none"
       id="ellipse5"
       cx="185.18211"
       cy="27.473179"
       rx="2.6833553"
       ry="1.8966199" /><path
       style="opacity:1;fill:#919191;fill-opacity:1;stroke:#000000;stroke-width:0.7;stroke-dasharray:none"
       d="m 171.57316,65.377015 3.86974,0.735833 c 0.57515,26.163027 -44.77335,27.465105 -38.79721,3.204428 2.65017,-6.689781 7.15503,-13.183634 11.43443,-19.701303 0.81456,-4.498619 0.96955,-13.896596 -10.38587,-12.532876 l -7.92671,3.251901 c -0.40599,-0.941054 -0.53927,-1.995545 -2.38426,-2.338046 4.99036,-3.016981 9.98071,-3.888237 14.97107,-4.431094 6.78409,2.36797 11.82519,5.924766 10.01993,14.151195 -2.99353,8.087253 -13.40954,23.60314 -12.78261,24.875861 0.19946,10.272637 18.22758,15.351339 28.56115,4.177628 2.18486,-3.622556 3.49636,-7.391644 3.42034,-11.393527 z"
       id="path23"
       sodipodi:nodetypes="cccccccccccc" /><ellipse
       style="opacity:1;fill:none;fill-opacity:1;stroke:#000000;stroke-width:1.2;stroke-dasharray:none"
       id="path24"
       cx="125.13632"
       cy="42.364471"
       rx="4.9932079"
       ry="4.2369666" /><ellipse
       style="opacity:1;fill:#919191;fill-opacity:1;stroke:#000000;stroke-width:1.2;stroke-dasharray:none"
       id="ellipse24"
       cx="124.94907"
       cy="42.316998"
       rx="1.5853436"
       ry="1.5547409" /><path
       style="opacity:1;fill:#000000;fill-opacity:1;stroke:#000000;stroke-width:0.499999;stroke-dasharray:none"
       d="m 5.9101116,121.93993 -0.011763,63.49268 73.7009274,-9.8e-4 0.0021,-63.51587 z"
       id="path25" /><path
       style="opacity:1;fill:#ff826e;fill-opacity:1;stroke:#000000;stroke-width:0.499999;stroke-dasharray:none"
       d="m 53.445833,128.70325 h 11.889713 v -5.04362 c -0.242245,-0.55399 -0.46713,-1.12336 -1.240234,-1.20716 h -9.29349 c -0.628473,0.16747 -1.208681,0.41181 -1.422135,1.24024 z"
       id="path26"
       sodipodi:nodetypes="ccccccc" /><path
       style="opacity:1;fill:#fdd570;fill-opacity:1;stroke:#000000;stroke-width:0.499999;stroke-dasharray:none"
       d="m 8.301302,124.51953 v -1.98438 h 21.315495 v 1.96784 z"
       id="path27" /><path
       style="opacity:1;fill:#fdd570;fill-opacity:1;stroke:#000000;stroke-width:0.499999;stroke-dasharray:none"
       d="m 8.3976,139.30229 v -1.98438 h 21.315495 v 1.96784 z"
       id="path28" /><path
       style="opacity:1;fill:#ffeba9;fill-opacity:1;stroke:#000000;stroke-width:0.499999;stroke-dasharray:none"
       d="m 15.411429,126.51871 v 8.48915 h 6.992439 v -8.34883 z"
       id="path29" /><path
       style="opacity:1;fill:#ffeba9;fill-opacity:1;stroke:#000000;stroke-width:0.499999;stroke-dasharray:none"
       d="m 12.979276,141.3221 11.903517,-0.0234 v 2.03459 l -7.085984,0.0468 v 2.05798 h 6.992439 v 2.15152 h -4.513514 l -0.02339,2.05797 h 4.583672 v 2.15152 h -7.062597 v 2.05798 h 7.062597 v 2.22167 h -4.630444 v 1.98782 h 4.65383 v 6.29086 H 13.026049 Z"
       id="path30" /><path
       style="opacity:1;fill:#fdd570;fill-opacity:1;stroke:#000000;stroke-width:0.499999;stroke-dasharray:none"
       d="m 15.013566,168.93912 v -2.73262 h 7.798326 v 2.70984 z"
       id="path31" /><path
       style="opacity:1;fill:#fdd570;fill-opacity:1;stroke:#000000;stroke-width:0.499999;stroke-dasharray:none"
       d="m 17.679757,173.19554 v -2.73273 h 2.606263 v 2.70995 z"
       id="path32" /><path
       style="opacity:1;fill:#ccd1d7;fill-opacity:1;stroke:#000000;stroke-width:0.499999;stroke-dasharray:none"
       d="m 69.229639,130.92031 c 1.149843,0.55994 1.157338,1.24681 0.06213,2.0562 l -19.583179,-0.12259 c -1.885853,-0.91702 -0.944195,-1.46524 -0.03307,-2.01744 z"
       id="path33"
       sodipodi:nodetypes="ccccc" /><path
       style="opacity:1;fill:#ccd1d7;fill-opacity:1;stroke:#000000;stroke-width:0.499999;stroke-dasharray:none"
       d="m 41.704947,147.67057 h 35.388021 c -0.267479,-3.00634 -3.071699,-3.8662 -5.539714,-5.01055 -1.982828,-0.91552 -4.029746,-1.53622 -5.589323,-4.39869 L 65.31901,135.05325 H 53.445833 l -0.115756,1.5875 c -0.674729,2.8235 -2.781407,4.86595 -6.366536,6.10196 -2.447991,1.01069 -4.719975,2.18138 -5.258594,4.92786 z"
       id="path34"
       sodipodi:nodetypes="ccccccccc" /><path
       style="opacity:1;fill:#ccd1d7;fill-opacity:1;stroke:#000000;stroke-width:0.499999;stroke-dasharray:none"
       d="M 41.627229,174.83436 H 77.08053 l 0.04677,4.20949 c -0.350505,2.24862 -2.163512,3.54859 -4.817534,4.30304 l -25.163425,-0.0468 c -2.271424,-0.30735 -4.458597,-0.88074 -5.565888,-4.8643 z"
       id="path35"
       sodipodi:nodetypes="ccccccc" /><path
       style="opacity:1;fill:#ffeaa7;fill-opacity:1;stroke:#000000;stroke-width:0.499999;stroke-dasharray:none"
       d="m 41.627229,149.67093 v 23.29254 l 35.546847,-0.28063 v -23.01191 z"
       id="path36" /><ellipse
       style="opacity:1;fill:#ffeaa7;fill-opacity:1;stroke:#000000;stroke-width:5.3;stroke-dasharray:none"
       id="path42"
       cx="66.608849"
       cy="159.19647"
       rx="1.0914062"
       ry="0.90950519" /><ellipse
       style="opacity:1;fill:#ffeaa7;fill-opacity:1;stroke:#000000;stroke-width:5.3;stroke-dasharray:none"
       id="ellipse42"
       cx="59.299732"
       cy="155.01276"
       rx="1.0914062"
       ry="0.92604166" /><ellipse
       style="opacity:1;fill:#ffeaa7;fill-opacity:1;stroke:#000000;stroke-width:5.3;stroke-dasharray:none"
       id="ellipse43"
       cx="52.089836"
       cy="159.14687"
       rx="1.0914062"
       ry="0.92604166" /><path
       style="opacity:1;fill:#000000;fill-opacity:1;stroke:#000000;stroke-width:0.4;stroke-dasharray:none"
       d="m 56.290302,161.29382 c 2.064204,-1.23461 4.056737,-0.82078 6.033611,-0.0468 l 4.560284,3.43775 c 0.621596,1.41096 1.161822,2.82192 0.140317,4.23288 -3.051547,2.80193 -5.323097,1.44388 -7.600477,0.11693 -2.182651,0.98014 -4.123845,2.71915 -7.483546,0 -0.83859,-1.25934 -1.032919,-2.70276 -0.02339,-4.49013 z"
       id="path43"
       sodipodi:nodetypes="cccccccc" /><path
       style="opacity:1;fill:#ffeaa7;fill-opacity:1;stroke:#000000;stroke-width:0.4;stroke-dasharray:none"
       d="m 53.809635,165.72838 c -0.571024,2.45006 0.688799,3.01022 2.844271,2.64584 l 2.745052,-2.31511 2.745052,2.34818 c 1.811829,0.23416 3.670111,0.52463 2.645833,-2.67891 l -4.001823,-2.91041 c -1.093382,-0.38929 -2.193378,-0.67936 -3.373437,0.23151 z"
       id="path44"
       sodipodi:nodetypes="cccccccc" /><path
       style="opacity:1;fill:#000000;stroke:#000000;stroke-width:0.4"
       d="m 112.50545,110.09464 0.0661,71.13806 h 78.38281 v -71.07386 z"
       id="path37" /><ellipse
       style="opacity:1;fill:#a23f3b;fill-opacity:0.921569;stroke:#000000;stroke-width:0.4"
       id="path38"
       cx="119.24632"
       cy="135.44229"
       rx="0.73603225"
       ry="0.69307089" /><path
       style="opacity:1;fill:#a23f3b;fill-opacity:0.921569;stroke:#000000;stroke-width:0.4"
       d="m 121.74982,123.32437 1.24928,-2.4417 1.25115,2.43215 2.57247,1.08745 -2.54908,1.16931 -1.181,2.47892 -1.35639,-2.47892 -2.57247,-1.02899 z"
       id="path40" /><path
       style="opacity:1;fill:#a23f3b;fill-opacity:0.921569;stroke:#000000;stroke-width:0.2;stroke-dasharray:none"
       d="m 181.43891,138.85735 0.70002,-1.39513 0.70106,1.38967 1.44146,0.62134 -1.42836,0.66812 -0.66176,1.41638 -0.76003,-1.41638 -1.44146,-0.58794 z"
       id="path41" /><path
       style="opacity:1;fill:#e96465;fill-opacity:1;stroke:#000000;stroke-width:0.2;stroke-dasharray:none"
       d="m 133.2592,123.09286 c -1.06434,-0.26541 -2.31804,-0.20975 -2.41432,-2.11666 l 0.10548,-5.68281 c 0.23433,-0.98946 0.91087,-1.45867 1.89428,-1.56686 l 28.09838,-0.0234 c 1.35743,0.18474 1.8775,1.00588 2.13982,2.0229 l -0.14031,5.56588 c -0.30104,0.77901 -0.67143,1.5184 -1.88258,1.77735 z"
       id="path45"
       sodipodi:nodetypes="ccccccccc" /><path
       style="opacity:1;fill:#d9f1f1;fill-opacity:1;stroke:#000000;stroke-width:0.2;stroke-dasharray:none"
       d="m 134.56351,124.74137 24.76586,0.0234 0.0234,3.81193 c 0.29965,1.78507 1.16584,3.1295 2.01121,4.49013 2.02773,2.8655 5.37276,6.11521 6.02648,8.57995 h -40.82852 c 0.38372,-2.40808 2.68533,-4.21173 4.11949,-6.28812 l 3.08697,-4.11595 c 1.15542,-2.3077 0.73126,-4.36598 0.79512,-6.50133 z"
       id="path46"
       sodipodi:nodetypes="ccccccccc" /><path
       style="opacity:1;fill:#e96465;fill-opacity:1;stroke:#000000;stroke-width:0.2;stroke-dasharray:none"
       d="m 126.24774,143.39963 -0.0165,22.62188 h 30.87357 c 2.20792,-3.2117 7.05001,-3.47313 10.64948,-5.1263 l -0.16536,-17.49558 z"
       id="path47"
       sodipodi:nodetypes="cccccc" /><path
       style="opacity:0.297125;fill:#bce3e2;fill-opacity:1;stroke:none;stroke-width:0.2;stroke-dasharray:none"
       d="m 151.84583,124.88169 7.38123,-0.0146 0.0275,3.73243 c 0.7804,4.54996 8.53548,11.47119 8.00275,12.94916 l -7.27514,0.0485 -5.29167,-8.08633 c -1.11169,-1.22866 -2.08498,-2.63032 -2.84427,-4.29948 z"
       id="path48"
       sodipodi:nodetypes="cccccccc" /><path
       style="opacity:1;fill:#df5352;fill-opacity:1;stroke:none;stroke-width:0.2;stroke-dasharray:none"
       d="m 160.10112,143.49701 0.0468,19.90156 c 2.51381,-0.86241 5.38485,-1.44697 7.53032,-2.59586 l -0.18709,-17.29839 z"
       id="path49"
       sodipodi:nodetypes="ccccc" /><ellipse
       style="opacity:1;fill:#1c0b11;fill-opacity:1;stroke:none;stroke-width:0.2;stroke-dasharray:none"
       id="path52"
       cx="139.53839"
       cy="151.7757"
       rx="2.3703043"
       ry="2.7595577" /><ellipse
       style="opacity:1;fill:#1c0b11;fill-opacity:1;stroke:none;stroke-width:0.2;stroke-dasharray:none"
       id="ellipse52"
       cx="147.11209"
       cy="148.69992"
       rx="2.3703043"
       ry="2.7595577" /><ellipse
       style="opacity:1;fill:#1c0b11;fill-opacity:1;stroke:none;stroke-width:0.2;stroke-dasharray:none"
       id="ellipse53"
       cx="154.1897"
       cy="151.44498"
       rx="2.3703043"
       ry="2.7595577" /><path
       style="opacity:1;fill:#1c0b11;fill-opacity:1;stroke:none;stroke-width:0.2;stroke-dasharray:none"
       d="m 140.08263,159.70357 c -0.0631,2.19993 1.3395,3.01767 2.71279,3.29743 2.78595,0.37888 5.47647,0.39512 8.04203,-0.0635 2.05576,-0.42188 3.14415,-1.41687 3.01052,-3.24467 0.0414,-4.2884 -10.14014,-10.22118 -13.76534,0.0107 z"
       id="path53"
       sodipodi:nodetypes="ccccc" /><path
       style="opacity:1;fill:#d9f1f1;fill-opacity:1;stroke:none;stroke-width:0.2;stroke-dasharray:none"
       d="m 156.07951,167.70823 c -0.77124,2.59115 0.0321,4.44133 0.71107,6.35 h -25.53229 c -3.49051,-0.69401 -5.00464,-2.88236 -4.8799,-6.30985 z"
       id="path54"
       sodipodi:nodetypes="ccccc" /><path
       style="opacity:1;fill:#d9f1f1;fill-opacity:1;stroke:none;stroke-width:0.2;stroke-dasharray:none"
       d="m 166.84475,162.87958 4.23333,11.07943 c -2.08911,0.63941 -4.02693,1.50575 -6.26732,1.91823 -4.29041,2.25206 -11.59041,-6.03864 -4.36562,-10.58334 1.6683,-1.00402 4.2664,-1.60955 6.39961,-2.41432 z"
       id="path55"
       sodipodi:nodetypes="ccccc" /><path
       style="opacity:1;fill:#e96465;fill-opacity:1;stroke:none;stroke-width:0.2;stroke-dasharray:none"
       d="m 168.53164,162.44971 4.11525,11.03093 c 1.99204,-0.89724 4.55923,-1.36877 6.5153,-2.53636 4.71029,-1.13691 4.3656,-12.51415 -4.06246,-11.1652 -1.9162,0.34562 -4.43384,1.8686 -6.56809,2.67063 z"
       id="path56"
       sodipodi:nodetypes="ccccc" /></g></svg>
